# xmcd CD database file
#
# Track frame offsets:
#	150
#	20417
#	37229
#	77145
#	97362
#
# Disc length: 1522 seconds
#
# Revision: 1
# Processed by: cddbd v1.5.2PL0 Copyright (c) Steve Scherf et al.
# Submitted via: CDex 1.60beta1-cs1
#
DISCID=3f05f005
DTITLE=山田優 - REAL YOU
DYEAR=2006
DGENRE=JPop
TTITLE0=REAL YOU
TTITLE1=DO IT
TTITLE2=REAL YOU (Army Slick's scratch build vocal)
TTITLE3=REAL YOU (Instrumental)
TTITLE4=DO IT (Instrumental)
EXTD=YEAR: 2006
EXTT0=
EXTT1=
EXTT2=
EXTT3=
EXTT4=
PLAYORDER=
